PathFileType	4	(x/y/z)	S08_M20_T15
DataRate	CameraRate	NumFrames	NumMarkers	Units	OrigDataRate	OrigDataStartFrame	OrigNumFrames
240	240	6	51	mm	240	128	509
Frame#	Time	Sternum			R.Acromium			L.Acromium			Top.Head			R.ASIS			L.ASIS			R.PSIS			L.PSIS			R.Great.Tro			L.Great.Tro			R.Iliac.Crest			L.Iliac.Crest			V.Sacral			R.Thigh.Upper.Post			R.Thigh.Lower.Ant			R.Thigh.Lower.Post			R.Thigh.Upper.Ant			R.Knee.Lat			R.Knee.Med			R.Shank.Upper.Post			R.Shank.Lower.Ant			R.Shank.Lower.Post			R.Shank.Upper.Ant			R.Ankle.Lat			R.Ankle.Med			R.Heel.Upper			R.Heel.Med			R.Heel.Lat			R.Toe.Lat			R.Toe.Med			R.Toe.Tip			L.Thigh.Upper.Post			L.Thigh.Lower.Ant			L.Thigh.Lower.Post			L.Thigh.Upper.Ant			L.Knee.Lat			L.Knee.Med			L.Shank.Upper.Post			L.Shank.Lower.Ant			L.Shank.Lower.Post			L.Shank.Upper.Ant			L.Ankle.Lat			L.Ankle.Med			L.Heel.Upper			L.Heel.Med			L.Heel.Lat			L.Toe.Lat			L.Toe.Med			L.Toe.Tip			Cervical.Spine			Back			
		X1	Y1	Z1	X2	Y2	Z2	X3	Y3	Z3	X4	Y4	Z4	X5	Y5	Z5	X6	Y6	Z6	X7	Y7	Z7	X8	Y8	Z8	X9	Y9	Z9	X10	Y10	Z10	X11	Y11	Z11	X12	Y12	Z12	X13	Y13	Z13	X14	Y14	Z14	X15	Y15	Z15	X16	Y16	Z16	X17	Y17	Z17	X18	Y18	Z18	X19	Y19	Z19	X20	Y20	Z20	X21	Y21	Z21	X22	Y22	Z22	X23	Y23	Z23	X24	Y24	Z24	X25	Y25	Z25	X26	Y26	Z26	X27	Y27	Z27	X28	Y28	Z28	X29	Y29	Z29	X30	Y30	Z30	X31	Y31	Z31	X32	Y32	Z32	X33	Y33	Z33	X34	Y34	Z34	X35	Y35	Z35	X36	Y36	Z36	X37	Y37	Z37	X38	Y38	Z38	X39	Y39	Z39	X40	Y40	Z40	X41	Y41	Z41	X42	Y42	Z42	X43	Y43	Z43	X44	Y44	Z44	X45	Y45	Z45	X46	Y46	Z46	X47	Y47	Z47	X48	Y48	Z48	X49	Y49	Z49	X50	Y50	Z50	X51	Y51	Z51	

128	0.52917	-944.05	1219.7	308.61	-1058.7	1449.9	491.49	-1075.3	1489.2	158.98	-1046.7	1770.8	345.93	-954.39	1009.3	416.43	-956.99	1009.3	182.32	-1158.6	1027.3	346.96	NaN	NaN	NaN	-1008.8	898.78	490.5	-1059.2	907.71	120.15	-1052.1	1073	467.65	-1057.3	1091.2	157.07	-1175.2	991.61	300.37	-950.25	702.62	482.26	-840.99	641.77	445.14	-908.15	622.45	462.76	-877.69	728.93	464.46	-830.78	546.11	443.75	-861.5	531.69	319.09	-830.71	354.05	458.25	-752.9	314.77	435.48	-806.06	281.4	452.87	-777.69	388.69	444.53	-744.48	118.84	422.09	-723.72	146.01	342.89	-772.05	65.04	370.98	-746.46	47.492	343.95	-756.58	43.825	404.79	NaN	NaN	NaN	-583.63	135.68	341.28	-538.33	180.23	389.78	-1114.3	711.06	134.29	-1049.7	606.13	164.03	-1115.5	620.85	153.57	-1046.3	692.25	138.93	-1128.5	515.14	178.88	-1130.3	516.9	304.04	-1232.1	354.54	177.18	-1191.3	254.79	206.64	-1251.1	287.55	191.8	-1177.3	325.59	190.68	-1283.6	113.68	218.24	-1262.7	110.35	305.27	-1340.4	87.385	269.4	-1331.1	49.653	294.4	-1337	65.659	232.47	-1164.7	43.793	190.28	-1142.4	33.784	305.37	-1077.6	47.118	255.27	-1130.1	1513.6	321.11	-1185	1229.7	320.26
129	0.53333	-938.73	1218.8	308.84	-1053.3	1449	491.8	-1069.9	1488.5	159.28	-1041.5	1770	346.34	-949.01	1008.5	416.6	-952.03	1008.4	182.45	-1153.8	1026.8	347.37	-1151.1	1034.1	254.34	-1003.4	898.13	490.79	-1054.6	907.05	120.42	-1046.6	1072.2	467.93	-1052.3	1090.4	157.37	-1170	990.96	300.87	-945.18	701.85	482.62	-835.99	640.96	445.46	-903.15	621.65	463.08	-872.6	728.1	464.82	-825.66	545.5	444.07	-856.63	530.81	319.47	-822.9	353.4	458.48	-744.48	315.37	435.66	-797.14	281.15	453	-770.4	388.93	444.77	-732.76	119.45	421.94	-712.48	147.08	342.76	-759.51	65.307	370.77	-733.61	48.167	343.68	-743.63	44.215	404.54	NaN	NaN	NaN	-572.16	139.04	341.01	-527.6	184.26	389.63	-1110.5	710.9	134.54	-1046.5	605.59	164.2	-1112.1	620.69	153.72	-1042.8	691.68	139.13	-1125.8	514.94	179.09	-1127.4	516.64	304.26	-1230.4	354.95	177.38	-1190.1	254.96	206.73	-1249.6	288.15	191.89	-1175.7	325.63	190.85	-1283.2	114.26	218.39	-1262.2	110.82	305.37	-1340.1	88.144	269.54	-1330.9	50.341	294.54	-1336.8	66.399	232.6	-1164.6	43.831	190.28	-1142.3	33.789	305.34	-1077.5	46.979	255.23	-1124.7	1512.9	321.42	-1179.6	1229	320.49
130	0.5375	-933.4	1218	309.08	-1047.9	1448.1	492.12	-1064.4	1487.7	159.6	-1036.3	1769.2	346.76	-943.62	1007.8	416.78	-947.06	1007.6	182.58	-1148.9	1026.2	347.8	-1146.6	1033.5	254.79	-997.89	897.48	491.09	-1050	906.4	120.71	-1041.2	1071.5	468.22	-1047.3	1089.6	157.67	-1164.7	990.3	301.38	-940.07	701.09	482.97	-830.94	640.17	445.81	-898.1	620.87	463.39	-867.47	727.3	465.17	-820.49	544.9	444.4	-851.7	529.96	319.85	-815.21	352.78	458.7	-736.22	315.93	435.84	-788.41	280.92	453.13	-763.22	389.13	445.02	-721.38	120.07	421.79	-701.55	148.15	342.64	-747.35	65.619	370.55	-721.17	48.872	343.41	-731.08	44.639	404.28	NaN	NaN	NaN	-561.05	142.26	340.78	-517.19	188.11	389.53	-1106.8	710.73	134.81	-1043.2	605.04	164.37	-1108.6	620.53	153.88	-1039.2	691.11	139.34	-1123	514.75	179.3	-1124.4	516.39	304.49	-1228.5	355.37	177.57	-1188.9	255.14	206.8	-1248.1	288.76	191.98	-1174.1	325.68	191.01	-1282.8	114.88	218.52	-1261.7	111.31	305.46	-1339.8	88.962	269.67	-1330.7	51.084	294.67	-1336.6	67.186	232.72	-1164.5	43.869	190.28	-1142.2	33.801	305.3	-1077.4	46.838	255.18	-1119.4	1512.1	321.73	-1174.1	1228.2	320.73
131	0.54167	-928.06	1217.1	309.33	-1042.5	1447.2	492.45	-1058.9	1487	159.92	-1031.2	1768.4	347.19	-938.2	1007	416.95	-942.06	1006.7	182.72	-1143.8	1025.6	348.24	-1141.8	1032.8	255.26	-992.37	896.81	491.38	-1045.4	905.75	121.01	-1035.7	1070.7	468.52	-1042.2	1088.9	157.99	-1159.3	989.62	301.9	-934.92	700.35	483.32	-825.84	639.4	446.16	-892.99	620.09	463.7	-862.29	726.51	465.52	-815.28	544.31	444.74	-846.71	529.14	320.24	-807.64	352.19	458.92	-728.12	316.44	436.03	-779.86	280.71	453.25	-756.12	389.31	445.28	-710.36	120.68	421.63	-690.95	149.2	342.53	-735.59	65.961	370.32	-709.13	49.59	343.13	-718.96	45.079	404	NaN	NaN	NaN	-550.28	145.34	340.59	-507.12	191.74	389.49	-1103	710.55	135.11	-1039.9	604.5	164.54	-1105.2	620.35	154.07	-1035.5	690.55	139.55	-1120.2	514.56	179.52	-1121.3	516.12	304.72	-1226.7	355.81	177.77	-1187.6	255.33	206.88	-1246.6	289.4	192.07	-1172.5	325.75	191.16	-1282.3	115.52	218.63	-1261.2	111.84	305.53	-1339.5	89.841	269.78	-1330.5	51.885	294.78	-1336.3	68.021	232.82	-1164.4	43.907	190.27	-1142.1	33.82	305.26	-1077.2	46.695	255.13	-1114	1511.4	322.05	-1168.6	1227.4	320.98
132	0.54583	-922.7	1216.3	309.6	-1037.1	1446.3	492.8	-1053.4	1486.2	160.25	-1026	1767.6	347.62	-932.75	1006.2	417.12	-937.04	1005.9	182.86	-1138.6	1024.9	348.71	-1136.9	1032.2	255.75	-986.83	896.13	491.69	-1040.8	905.09	121.31	-1030.2	1070	468.82	-1037.2	1088.1	158.32	-1154	988.92	302.43	-929.71	699.62	483.66	-820.66	638.66	446.52	-887.82	619.34	464.01	-857.05	725.74	465.86	-810	543.73	445.09	-841.64	528.34	320.64	-800.19	351.63	459.13	-720.18	316.9	436.22	-771.51	280.51	453.37	-749.11	389.45	445.55	-699.71	121.27	421.46	-680.67	150.2	342.42	-724.24	66.313	370.07	-697.52	50.301	342.85	-707.28	45.52	403.72	NaN	NaN	NaN	-539.88	148.23	340.44	-497.38	195.13	389.49	-1099.2	710.34	135.45	-1036.5	603.97	164.71	-1101.6	620.17	154.29	-1031.8	690	139.76	-1117.3	514.37	179.74	-1118.2	515.85	304.96	-1224.7	356.27	177.95	-1186.2	255.54	206.95	-1245	290.04	192.17	-1170.7	325.84	191.29	-1281.8	116.19	218.71	-1260.7	112.4	305.59	-1339.2	90.784	269.86	-1330.3	52.745	294.89	-1336.1	68.905	232.91	-1164.4	43.943	190.26	-1142	33.848	305.23	-1077.1	46.549	255.07	-1108.6	1510.6	322.38	-1163.1	1226.6	321.24
133	0.55	-917.34	1215.4	309.89	-1031.6	1445.4	493.16	-1047.9	1485.4	160.58	-1020.9	1766.8	348.06	-927.29	1005.4	417.29	-932	1005.1	183	-1133.4	1024.3	349.18	-1131.9	1031.5	256.26	-981.25	895.45	491.99	-1036.1	904.44	121.62	-1024.6	1069.2	469.13	-1032.1	1087.3	158.66	-1148.7	988.21	302.97	-924.43	698.92	484.01	-815.41	637.95	446.88	-882.57	618.62	464.32	-851.75	725.01	466.21	-804.67	543.17	445.44	-836.48	527.59	321.03	-792.86	351.08	459.33	-712.4	317.3	436.41	-763.35	280.31	453.47	-742.19	389.55	445.82	-689.45	121.83	421.3	-670.75	151.15	342.32	-713.32	66.66	369.82	-686.36	50.986	342.57	-696.06	45.944	403.43	NaN	NaN	NaN	-529.84	150.92	340.33	-487.97	198.27	389.55	-1095.4	710.12	135.83	-1033.1	603.43	164.87	-1098.1	619.97	154.52	-1028	689.45	139.97	-1114.3	514.18	179.96	-1115	515.57	305.2	-1222.8	356.74	178.14	-1184.8	255.77	207.02	-1243.3	290.7	192.28	-1168.9	325.95	191.41	-1281.3	116.9	218.78	-1260.1	113	305.63	-1338.9	91.793	269.93	-1330	53.668	294.97	-1335.8	69.84	232.98	-1164.3	43.978	190.24	-1141.9	33.887	305.19	-1077	46.402	255.02	-1103.2	1509.9	322.71	-1157.5	1225.8	321.52
